<mxfile host="app.diagrams.net" modified="2021-09-15T01:07:35.957Z" agent="5.0 (Windows NT 10.0; Win64; x64) AppleWebKit/537.36 (KHTML, like Gecko) Chrome/93.0.4577.63 Safari/537.36" etag="C4GVvxCar197bsp-PZAy" version="15.2.5" type="github">
  <diagram id="R2lEEEUBdFMjLlhIrx00" name="Page-1">
    <mxGraphModel dx="159" dy="90" grid="1" gridSize="10" guides="1" tooltips="1" connect="1" arrows="1" fold="1" page="1" pageScale="1" pageWidth="850" pageHeight="1100" math="0" shadow="0" extFonts="Permanent Marker^https://fonts.googleapis.com/css?family=Permanent+Marker">
      <root>
        <mxCell id="0" />
        <mxCell id="1" parent="0" />
        <mxCell id="0YWBP48tjj2sf-CFU7Rv-2" value="STAFF_UNS" style="rounded=0;whiteSpace=wrap;html=1;fillColor=#fff2cc;strokeColor=#d6b656;" vertex="1" parent="1">
          <mxGeometry x="220" y="270" width="120" height="60" as="geometry" />
        </mxCell>
        <mxCell id="0YWBP48tjj2sf-CFU7Rv-5" value="Nama" style="ellipse;whiteSpace=wrap;html=1;fillColor=#dae8fc;strokeColor=#6c8ebf;" vertex="1" parent="1">
          <mxGeometry x="130" y="130" width="90" height="50" as="geometry" />
        </mxCell>
        <mxCell id="0YWBP48tjj2sf-CFU7Rv-6" value="Fakultas" style="ellipse;whiteSpace=wrap;html=1;fillColor=#dae8fc;strokeColor=#6c8ebf;" vertex="1" parent="1">
          <mxGeometry x="340" y="130" width="90" height="50" as="geometry" />
        </mxCell>
        <mxCell id="0YWBP48tjj2sf-CFU7Rv-7" value="TanggalLahir" style="ellipse;whiteSpace=wrap;html=1;fillColor=#dae8fc;strokeColor=#6c8ebf;" vertex="1" parent="1">
          <mxGeometry x="235" y="130" width="90" height="50" as="geometry" />
        </mxCell>
        <mxCell id="0YWBP48tjj2sf-CFU7Rv-8" value="&lt;u&gt;NIK&lt;/u&gt;" style="ellipse;whiteSpace=wrap;html=1;fillColor=#dae8fc;strokeColor=#6c8ebf;" vertex="1" parent="1">
          <mxGeometry x="90" y="200" width="90" height="50" as="geometry" />
        </mxCell>
        <mxCell id="0YWBP48tjj2sf-CFU7Rv-9" value="Alamat" style="ellipse;whiteSpace=wrap;html=1;fillColor=#dae8fc;strokeColor=#6c8ebf;" vertex="1" parent="1">
          <mxGeometry x="380" y="200" width="90" height="50" as="geometry" />
        </mxCell>
        <mxCell id="0YWBP48tjj2sf-CFU7Rv-10" value="" style="endArrow=none;html=1;exitX=0;exitY=0;exitDx=0;exitDy=0;entryX=0.939;entryY=0.745;entryDx=0;entryDy=0;entryPerimeter=0;" edge="1" parent="1" source="0YWBP48tjj2sf-CFU7Rv-2" target="0YWBP48tjj2sf-CFU7Rv-8">
          <mxGeometry width="50" height="50" relative="1" as="geometry">
            <mxPoint x="300" y="250" as="sourcePoint" />
            <mxPoint x="350" y="200" as="targetPoint" />
          </mxGeometry>
        </mxCell>
        <mxCell id="0YWBP48tjj2sf-CFU7Rv-11" value="" style="endArrow=none;html=1;entryX=0.041;entryY=0.774;entryDx=0;entryDy=0;exitX=1;exitY=0;exitDx=0;exitDy=0;entryPerimeter=0;" edge="1" parent="1" source="0YWBP48tjj2sf-CFU7Rv-2" target="0YWBP48tjj2sf-CFU7Rv-9">
          <mxGeometry width="50" height="50" relative="1" as="geometry">
            <mxPoint x="340" y="230" as="sourcePoint" />
            <mxPoint x="350" y="200" as="targetPoint" />
          </mxGeometry>
        </mxCell>
        <mxCell id="0YWBP48tjj2sf-CFU7Rv-12" value="" style="endArrow=none;html=1;entryX=0.235;entryY=0.918;entryDx=0;entryDy=0;entryPerimeter=0;" edge="1" parent="1" source="0YWBP48tjj2sf-CFU7Rv-2" target="0YWBP48tjj2sf-CFU7Rv-6">
          <mxGeometry width="50" height="50" relative="1" as="geometry">
            <mxPoint x="320" y="219" as="sourcePoint" />
            <mxPoint x="350" y="200" as="targetPoint" />
          </mxGeometry>
        </mxCell>
        <mxCell id="0YWBP48tjj2sf-CFU7Rv-13" value="" style="endArrow=none;html=1;entryX=0.806;entryY=0.918;entryDx=0;entryDy=0;entryPerimeter=0;exitX=0.204;exitY=-0.002;exitDx=0;exitDy=0;exitPerimeter=0;" edge="1" parent="1" source="0YWBP48tjj2sf-CFU7Rv-2" target="0YWBP48tjj2sf-CFU7Rv-5">
          <mxGeometry width="50" height="50" relative="1" as="geometry">
            <mxPoint x="160" y="230" as="sourcePoint" />
            <mxPoint x="210" y="180" as="targetPoint" />
          </mxGeometry>
        </mxCell>
        <mxCell id="0YWBP48tjj2sf-CFU7Rv-14" value="" style="endArrow=none;html=1;entryX=0.463;entryY=1.021;entryDx=0;entryDy=0;entryPerimeter=0;exitX=0.469;exitY=0;exitDx=0;exitDy=0;exitPerimeter=0;" edge="1" parent="1" source="0YWBP48tjj2sf-CFU7Rv-2" target="0YWBP48tjj2sf-CFU7Rv-7">
          <mxGeometry width="50" height="50" relative="1" as="geometry">
            <mxPoint x="300" y="250" as="sourcePoint" />
            <mxPoint x="350" y="200" as="targetPoint" />
          </mxGeometry>
        </mxCell>
        <mxCell id="0YWBP48tjj2sf-CFU7Rv-15" value="NDepan" style="ellipse;whiteSpace=wrap;html=1;fillColor=#dae8fc;strokeColor=#6c8ebf;" vertex="1" parent="1">
          <mxGeometry x="20" y="50" width="80" height="40" as="geometry" />
        </mxCell>
        <mxCell id="0YWBP48tjj2sf-CFU7Rv-16" value="NTengah" style="ellipse;whiteSpace=wrap;html=1;fillColor=#dae8fc;strokeColor=#6c8ebf;" vertex="1" parent="1">
          <mxGeometry x="135" y="50" width="80" height="40" as="geometry" />
        </mxCell>
        <mxCell id="0YWBP48tjj2sf-CFU7Rv-17" value="NBelakang" style="ellipse;whiteSpace=wrap;html=1;fillColor=#dae8fc;strokeColor=#6c8ebf;" vertex="1" parent="1">
          <mxGeometry x="240" y="50" width="80" height="40" as="geometry" />
        </mxCell>
        <mxCell id="0YWBP48tjj2sf-CFU7Rv-18" value="" style="endArrow=none;html=1;entryX=0.9;entryY=0.833;entryDx=0;entryDy=0;entryPerimeter=0;exitX=0.187;exitY=0.109;exitDx=0;exitDy=0;exitPerimeter=0;" edge="1" parent="1" source="0YWBP48tjj2sf-CFU7Rv-5" target="0YWBP48tjj2sf-CFU7Rv-15">
          <mxGeometry width="50" height="50" relative="1" as="geometry">
            <mxPoint x="300" y="160" as="sourcePoint" />
            <mxPoint x="350" y="110" as="targetPoint" />
          </mxGeometry>
        </mxCell>
        <mxCell id="0YWBP48tjj2sf-CFU7Rv-19" value="" style="endArrow=none;html=1;exitX=0.9;exitY=0.167;exitDx=0;exitDy=0;exitPerimeter=0;" edge="1" parent="1" source="0YWBP48tjj2sf-CFU7Rv-5" target="0YWBP48tjj2sf-CFU7Rv-17">
          <mxGeometry width="50" height="50" relative="1" as="geometry">
            <mxPoint x="300" y="160" as="sourcePoint" />
            <mxPoint x="350" y="110" as="targetPoint" />
          </mxGeometry>
        </mxCell>
        <mxCell id="0YWBP48tjj2sf-CFU7Rv-20" value="" style="endArrow=none;html=1;entryX=0.5;entryY=1;entryDx=0;entryDy=0;" edge="1" parent="1" source="0YWBP48tjj2sf-CFU7Rv-5" target="0YWBP48tjj2sf-CFU7Rv-16">
          <mxGeometry width="50" height="50" relative="1" as="geometry">
            <mxPoint x="300" y="160" as="sourcePoint" />
            <mxPoint x="350" y="110" as="targetPoint" />
          </mxGeometry>
        </mxCell>
        <mxCell id="0YWBP48tjj2sf-CFU7Rv-21" value="ANGGOTA" style="rhombus;whiteSpace=wrap;html=1;fillColor=#fff2cc;strokeColor=#d6b656;" vertex="1" parent="1">
          <mxGeometry x="550" y="265" width="110" height="70" as="geometry" />
        </mxCell>
        <mxCell id="0YWBP48tjj2sf-CFU7Rv-22" value="ASN" style="rounded=0;whiteSpace=wrap;html=1;fillColor=#fff2cc;strokeColor=#d6b656;" vertex="1" parent="1">
          <mxGeometry x="800" y="270" width="120" height="60" as="geometry" />
        </mxCell>
        <mxCell id="0YWBP48tjj2sf-CFU7Rv-23" value="d" style="ellipse;whiteSpace=wrap;html=1;aspect=fixed;" vertex="1" parent="1">
          <mxGeometry x="840" y="440" width="40" height="40" as="geometry" />
        </mxCell>
        <mxCell id="0YWBP48tjj2sf-CFU7Rv-25" value="" style="endArrow=none;html=1;entryX=0;entryY=0.5;entryDx=0;entryDy=0;exitX=1;exitY=0.5;exitDx=0;exitDy=0;" edge="1" parent="1" source="0YWBP48tjj2sf-CFU7Rv-2" target="0YWBP48tjj2sf-CFU7Rv-21">
          <mxGeometry width="50" height="50" relative="1" as="geometry">
            <mxPoint x="360" y="320" as="sourcePoint" />
            <mxPoint x="410" y="270" as="targetPoint" />
          </mxGeometry>
        </mxCell>
        <mxCell id="0YWBP48tjj2sf-CFU7Rv-27" value="" style="endArrow=none;html=1;exitX=0.522;exitY=1.011;exitDx=0;exitDy=0;exitPerimeter=0;entryX=0.625;entryY=-0.033;entryDx=0;entryDy=0;entryPerimeter=0;" edge="1" parent="1" source="0YWBP48tjj2sf-CFU7Rv-22" target="0YWBP48tjj2sf-CFU7Rv-23">
          <mxGeometry width="50" height="50" relative="1" as="geometry">
            <mxPoint x="860" y="340" as="sourcePoint" />
            <mxPoint x="870" y="430" as="targetPoint" />
          </mxGeometry>
        </mxCell>
        <mxCell id="0YWBP48tjj2sf-CFU7Rv-28" value="" style="endArrow=none;html=1;entryX=0.392;entryY=0.017;entryDx=0;entryDy=0;entryPerimeter=0;exitX=0.442;exitY=0.994;exitDx=0;exitDy=0;exitPerimeter=0;" edge="1" parent="1" source="0YWBP48tjj2sf-CFU7Rv-22" target="0YWBP48tjj2sf-CFU7Rv-23">
          <mxGeometry width="50" height="50" relative="1" as="geometry">
            <mxPoint x="630" y="410" as="sourcePoint" />
            <mxPoint x="680" y="360" as="targetPoint" />
          </mxGeometry>
        </mxCell>
        <mxCell id="0YWBP48tjj2sf-CFU7Rv-29" value="" style="endArrow=none;html=1;entryX=0;entryY=0.5;entryDx=0;entryDy=0;exitX=1;exitY=0.5;exitDx=0;exitDy=0;" edge="1" parent="1" source="0YWBP48tjj2sf-CFU7Rv-21" target="0YWBP48tjj2sf-CFU7Rv-22">
          <mxGeometry width="50" height="50" relative="1" as="geometry">
            <mxPoint x="630" y="410" as="sourcePoint" />
            <mxPoint x="680" y="360" as="targetPoint" />
          </mxGeometry>
        </mxCell>
        <mxCell id="0YWBP48tjj2sf-CFU7Rv-33" value="d" style="ellipse;whiteSpace=wrap;html=1;aspect=fixed;" vertex="1" parent="1">
          <mxGeometry x="260" y="440" width="40" height="40" as="geometry" />
        </mxCell>
        <mxCell id="0YWBP48tjj2sf-CFU7Rv-34" value="" style="endArrow=none;html=1;exitX=0.521;exitY=1.009;exitDx=0;exitDy=0;exitPerimeter=0;entryX=0.624;entryY=0.042;entryDx=0;entryDy=0;entryPerimeter=0;" edge="1" parent="1" target="0YWBP48tjj2sf-CFU7Rv-33" source="0YWBP48tjj2sf-CFU7Rv-2">
          <mxGeometry width="50" height="50" relative="1" as="geometry">
            <mxPoint x="282.6399999999999" y="331.02" as="sourcePoint" />
            <mxPoint x="290" y="430.36" as="targetPoint" />
          </mxGeometry>
        </mxCell>
        <mxCell id="0YWBP48tjj2sf-CFU7Rv-35" value="" style="endArrow=none;html=1;exitX=0.44;exitY=1.024;exitDx=0;exitDy=0;exitPerimeter=0;" edge="1" parent="1" source="0YWBP48tjj2sf-CFU7Rv-2">
          <mxGeometry width="50" height="50" relative="1" as="geometry">
            <mxPoint x="273.03999999999996" y="330" as="sourcePoint" />
            <mxPoint x="276" y="441" as="targetPoint" />
          </mxGeometry>
        </mxCell>
      </root>
    </mxGraphModel>
  </diagram>
</mxfile>
